<svg width="542" height="333" viewBox="0 0 542 333" fill="none" xmlns="http://www.w3.org/2000/svg">
<rect x="0.5" y="0.5" width="541" height="332" rx="19.5" fill="#FDFDFD" stroke="#E8E8E8"/>
<path d="M17.4595 46.5991C18.3397 46.5991 19.0358 46.8022 19.5479 47.2085C20.0599 47.6105 20.3159 48.1501 20.3159 48.8271C20.3159 49.7793 19.7446 50.5368 18.6021 51.0996C19.3299 51.4635 19.8462 51.8465 20.1509 52.2485C20.4598 52.6506 20.6143 53.0991 20.6143 53.5942C20.6143 54.3602 20.3328 54.9738 19.77 55.4351C19.2072 55.8963 18.4455 56.127 17.4849 56.127C16.4777 56.127 15.6969 55.9111 15.1426 55.4795C14.5882 55.0479 14.311 54.4364 14.311 53.645C14.311 53.1287 14.4549 52.6654 14.7427 52.2549C15.0347 51.8402 15.5107 51.472 16.1709 51.1504C15.6038 50.8118 15.1997 50.4543 14.9585 50.0776C14.7173 49.701 14.5967 49.2778 14.5967 48.8081C14.5967 48.1353 14.8612 47.5999 15.3901 47.2021C15.9191 46.8001 16.6089 46.5991 17.4595 46.5991ZM15.7393 53.5942C15.7393 54.0343 15.8937 54.3771 16.2026 54.6226C16.5116 54.8638 16.9305 54.9844 17.4595 54.9844C18.0054 54.9844 18.4285 54.8595 18.729 54.6099C19.0337 54.356 19.186 54.0132 19.186 53.5815C19.186 53.2388 19.0464 52.9256 18.7671 52.6421C18.4878 52.3586 18.0646 52.0962 17.4976 51.855L17.3135 51.7725C16.7549 52.0179 16.3529 52.2887 16.1074 52.585C15.862 52.877 15.7393 53.2134 15.7393 53.5942ZM17.4468 47.748C17.0236 47.748 16.6829 47.8538 16.4248 48.0654C16.1667 48.2728 16.0376 48.5563 16.0376 48.916C16.0376 49.1361 16.0841 49.3328 16.1772 49.5063C16.2703 49.6799 16.4058 49.8385 16.5835 49.9824C16.7612 50.1221 17.0617 50.2913 17.4849 50.4902C17.9927 50.266 18.3503 50.0311 18.5576 49.7856C18.7692 49.536 18.875 49.2461 18.875 48.916C18.875 48.5563 18.7438 48.2728 18.4814 48.0654C18.2233 47.8538 17.8784 47.748 17.4468 47.748ZM28.041 51.3599C28.041 52.9722 27.7808 54.1698 27.2603 54.9526C26.744 55.7355 25.9526 56.127 24.8862 56.127C23.8537 56.127 23.0708 55.7228 22.5376 54.9146C22.0044 54.1063 21.7378 52.9214 21.7378 51.3599C21.7378 49.7222 21.9959 48.5161 22.5122 47.7417C23.0327 46.9631 23.8241 46.5737 24.8862 46.5737C25.923 46.5737 26.708 46.98 27.2412 47.7925C27.7744 48.605 28.041 49.7941 28.041 51.3599ZM23.2485 51.3599C23.2485 52.6252 23.3776 53.5286 23.6357 54.0703C23.8981 54.612 24.3149 54.8828 24.8862 54.8828C25.4575 54.8828 25.8743 54.6077 26.1367 54.0576C26.4033 53.5075 26.5366 52.6082 26.5366 51.3599C26.5366 50.1157 26.4033 49.2165 26.1367 48.6621C25.8743 48.1035 25.4575 47.8242 24.8862 47.8242C24.3149 47.8242 23.8981 48.0972 23.6357 48.6431C23.3776 49.189 23.2485 50.0946 23.2485 51.3599ZM35.4678 51.3599C35.4678 52.9722 35.2075 54.1698 34.687 54.9526C34.1707 55.7355 33.3794 56.127 32.313 56.127C31.2804 56.127 30.4976 55.7228 29.9644 54.9146C29.4312 54.1063 29.1646 52.9214 29.1646 51.3599C29.1646 49.7222 29.4227 48.5161 29.939 47.7417C30.4595 46.9631 31.2508 46.5737 32.313 46.5737C33.3498 46.5737 34.1348 46.98 34.668 47.7925C35.2012 48.605 35.4678 49.7941 35.4678 51.3599ZM30.6753 51.3599C30.6753 52.6252 30.8044 53.5286 31.0625 54.0703C31.3249 54.612 31.7417 54.8828 32.313 54.8828C32.8843 54.8828 33.3011 54.6077 33.5635 54.0576C33.8301 53.5075 33.9634 52.6082 33.9634 51.3599C33.9634 50.1157 33.8301 49.2165 33.5635 48.6621C33.3011 48.1035 32.8843 47.8242 32.313 47.8242C31.7417 47.8242 31.3249 48.0972 31.0625 48.6431C30.8044 49.189 30.6753 50.0946 30.6753 51.3599ZM42.8945 51.3599C42.8945 52.9722 42.6343 54.1698 42.1138 54.9526C41.5975 55.7355 40.8062 56.127 39.7397 56.127C38.7072 56.127 37.9243 55.7228 37.3911 54.9146C36.8579 54.1063 36.5913 52.9214 36.5913 51.3599C36.5913 49.7222 36.8494 48.5161 37.3657 47.7417C37.8862 46.9631 38.6776 46.5737 39.7397 46.5737C40.7765 46.5737 41.5615 46.98 42.0947 47.7925C42.6279 48.605 42.8945 49.7941 42.8945 51.3599ZM38.1021 51.3599C38.1021 52.6252 38.2311 53.5286 38.4893 54.0703C38.7516 54.612 39.1685 54.8828 39.7397 54.8828C40.311 54.8828 40.7279 54.6077 40.9902 54.0576C41.2568 53.5075 41.3901 52.6082 41.3901 51.3599C41.3901 50.1157 41.2568 49.2165 40.9902 48.6621C40.7279 48.1035 40.311 47.8242 39.7397 47.8242C39.1685 47.8242 38.7516 48.0972 38.4893 48.6431C38.2311 49.189 38.1021 50.0946 38.1021 51.3599Z" fill="#404040"/>
<path d="M20.9443 99.9751H19.6938V102H18.2402V99.9751H14V98.8262L18.2402 92.6943H19.6938V98.7373H20.9443V99.9751ZM18.2402 98.7373V96.4077C18.2402 95.5783 18.2614 94.8991 18.3037 94.3701H18.2529C18.1344 94.6494 17.9482 94.988 17.6943 95.3857L15.3901 98.7373H18.2402ZM28.041 97.3599C28.041 98.9722 27.7808 100.17 27.2603 100.953C26.744 101.736 25.9526 102.127 24.8862 102.127C23.8537 102.127 23.0708 101.723 22.5376 100.915C22.0044 100.106 21.7378 98.9214 21.7378 97.3599C21.7378 95.7222 21.9959 94.5161 22.5122 93.7417C23.0327 92.9631 23.8241 92.5737 24.8862 92.5737C25.923 92.5737 26.708 92.98 27.2412 93.7925C27.7744 94.605 28.041 95.7941 28.041 97.3599ZM23.2485 97.3599C23.2485 98.6252 23.3776 99.5286 23.6357 100.07C23.8981 100.612 24.3149 100.883 24.8862 100.883C25.4575 100.883 25.8743 100.608 26.1367 100.058C26.4033 99.5075 26.5366 98.6082 26.5366 97.3599C26.5366 96.1157 26.4033 95.2165 26.1367 94.6621C25.8743 94.1035 25.4575 93.8242 24.8862 93.8242C24.3149 93.8242 23.8981 94.0972 23.6357 94.6431C23.3776 95.189 23.2485 96.0946 23.2485 97.3599ZM35.4678 97.3599C35.4678 98.9722 35.2075 100.17 34.687 100.953C34.1707 101.736 33.3794 102.127 32.313 102.127C31.2804 102.127 30.4976 101.723 29.9644 100.915C29.4312 100.106 29.1646 98.9214 29.1646 97.3599C29.1646 95.7222 29.4227 94.5161 29.939 93.7417C30.4595 92.9631 31.2508 92.5737 32.313 92.5737C33.3498 92.5737 34.1348 92.98 34.668 93.7925C35.2012 94.605 35.4678 95.7941 35.4678 97.3599ZM30.6753 97.3599C30.6753 98.6252 30.8044 99.5286 31.0625 100.07C31.3249 100.612 31.7417 100.883 32.313 100.883C32.8843 100.883 33.3011 100.608 33.5635 100.058C33.8301 99.5075 33.9634 98.6082 33.9634 97.3599C33.9634 96.1157 33.8301 95.2165 33.5635 94.6621C33.3011 94.1035 32.8843 93.8242 32.313 93.8242C31.7417 93.8242 31.3249 94.0972 31.0625 94.6431C30.8044 95.189 30.6753 96.0946 30.6753 97.3599ZM42.8945 97.3599C42.8945 98.9722 42.6343 100.17 42.1138 100.953C41.5975 101.736 40.8062 102.127 39.7397 102.127C38.7072 102.127 37.9243 101.723 37.3911 100.915C36.8579 100.106 36.5913 98.9214 36.5913 97.3599C36.5913 95.7222 36.8494 94.5161 37.3657 93.7417C37.8862 92.9631 38.6776 92.5737 39.7397 92.5737C40.7765 92.5737 41.5615 92.98 42.0947 93.7925C42.6279 94.605 42.8945 95.7941 42.8945 97.3599ZM38.1021 97.3599C38.1021 98.6252 38.2311 99.5286 38.4893 100.07C38.7516 100.612 39.1685 100.883 39.7397 100.883C40.311 100.883 40.7279 100.608 40.9902 100.058C41.2568 99.5075 41.3901 98.6082 41.3901 97.3599C41.3901 96.1157 41.2568 95.2165 40.9902 94.6621C40.7279 94.1035 40.311 93.8242 39.7397 93.8242C39.1685 93.8242 38.7516 94.0972 38.4893 94.6431C38.2311 95.189 38.1021 96.0946 38.1021 97.3599Z" fill="#404040"/>
<path d="M20.6143 148H14.3237V146.87L16.7168 144.464C17.4235 143.741 17.8911 143.229 18.1196 142.928C18.3524 142.624 18.5216 142.338 18.6274 142.071C18.7332 141.805 18.7861 141.519 18.7861 141.214C18.7861 140.795 18.6592 140.465 18.4053 140.224C18.1556 139.983 17.8086 139.862 17.3643 139.862C17.0088 139.862 16.6639 139.928 16.3296 140.059C15.9995 140.19 15.6165 140.427 15.1807 140.77L14.3745 139.786C14.8908 139.35 15.3923 139.041 15.8789 138.859C16.3656 138.677 16.884 138.586 17.4341 138.586C18.2974 138.586 18.9893 138.813 19.5098 139.266C20.0303 139.714 20.2905 140.319 20.2905 141.081C20.2905 141.5 20.2144 141.898 20.062 142.274C19.9139 142.651 19.6833 143.04 19.3701 143.442C19.0612 143.84 18.5449 144.38 17.8213 145.061L16.209 146.623V146.686H20.6143V148ZM28.041 143.36C28.041 144.972 27.7808 146.17 27.2603 146.953C26.744 147.736 25.9526 148.127 24.8862 148.127C23.8537 148.127 23.0708 147.723 22.5376 146.915C22.0044 146.106 21.7378 144.921 21.7378 143.36C21.7378 141.722 21.9959 140.516 22.5122 139.742C23.0327 138.963 23.8241 138.574 24.8862 138.574C25.923 138.574 26.708 138.98 27.2412 139.792C27.7744 140.605 28.041 141.794 28.041 143.36ZM23.2485 143.36C23.2485 144.625 23.3776 145.529 23.6357 146.07C23.8981 146.612 24.3149 146.883 24.8862 146.883C25.4575 146.883 25.8743 146.608 26.1367 146.058C26.4033 145.507 26.5366 144.608 26.5366 143.36C26.5366 142.116 26.4033 141.216 26.1367 140.662C25.8743 140.104 25.4575 139.824 24.8862 139.824C24.3149 139.824 23.8981 140.097 23.6357 140.643C23.3776 141.189 23.2485 142.095 23.2485 143.36ZM35.4678 143.36C35.4678 144.972 35.2075 146.17 34.687 146.953C34.1707 147.736 33.3794 148.127 32.313 148.127C31.2804 148.127 30.4976 147.723 29.9644 146.915C29.4312 146.106 29.1646 144.921 29.1646 143.36C29.1646 141.722 29.4227 140.516 29.939 139.742C30.4595 138.963 31.2508 138.574 32.313 138.574C33.3498 138.574 34.1348 138.98 34.668 139.792C35.2012 140.605 35.4678 141.794 35.4678 143.36ZM30.6753 143.36C30.6753 144.625 30.8044 145.529 31.0625 146.07C31.3249 146.612 31.7417 146.883 32.313 146.883C32.8843 146.883 33.3011 146.608 33.5635 146.058C33.8301 145.507 33.9634 144.608 33.9634 143.36C33.9634 142.116 33.8301 141.216 33.5635 140.662C33.3011 140.104 32.8843 139.824 32.313 139.824C31.7417 139.824 31.3249 140.097 31.0625 140.643C30.8044 141.189 30.6753 142.095 30.6753 143.36ZM42.8945 143.36C42.8945 144.972 42.6343 146.17 42.1138 146.953C41.5975 147.736 40.8062 148.127 39.7397 148.127C38.7072 148.127 37.9243 147.723 37.3911 146.915C36.8579 146.106 36.5913 144.921 36.5913 143.36C36.5913 141.722 36.8494 140.516 37.3657 139.742C37.8862 138.963 38.6776 138.574 39.7397 138.574C40.7765 138.574 41.5615 138.98 42.0947 139.792C42.6279 140.605 42.8945 141.794 42.8945 143.36ZM38.1021 143.36C38.1021 144.625 38.2311 145.529 38.4893 146.07C38.7516 146.612 39.1685 146.883 39.7397 146.883C40.311 146.883 40.7279 146.608 40.9902 146.058C41.2568 145.507 41.3901 144.608 41.3901 143.36C41.3901 142.116 41.2568 141.216 40.9902 140.662C40.7279 140.104 40.311 139.824 39.7397 139.824C39.1685 139.824 38.7516 140.097 38.4893 140.643C38.2311 141.189 38.1021 142.095 38.1021 143.36Z" fill="#404040"/>
<path d="M18.7036 194H17.2119V188.008C17.2119 187.293 17.2288 186.726 17.2627 186.307C17.1654 186.408 17.0448 186.52 16.9009 186.643C16.7612 186.766 16.2873 187.155 15.479 187.811L14.73 186.865L17.4595 184.72H18.7036V194ZM28.041 189.36C28.041 190.972 27.7808 192.17 27.2603 192.953C26.744 193.736 25.9526 194.127 24.8862 194.127C23.8537 194.127 23.0708 193.723 22.5376 192.915C22.0044 192.106 21.7378 190.921 21.7378 189.36C21.7378 187.722 21.9959 186.516 22.5122 185.742C23.0327 184.963 23.8241 184.574 24.8862 184.574C25.923 184.574 26.708 184.98 27.2412 185.792C27.7744 186.605 28.041 187.794 28.041 189.36ZM23.2485 189.36C23.2485 190.625 23.3776 191.529 23.6357 192.07C23.8981 192.612 24.3149 192.883 24.8862 192.883C25.4575 192.883 25.8743 192.608 26.1367 192.058C26.4033 191.507 26.5366 190.608 26.5366 189.36C26.5366 188.116 26.4033 187.216 26.1367 186.662C25.8743 186.104 25.4575 185.824 24.8862 185.824C24.3149 185.824 23.8981 186.097 23.6357 186.643C23.3776 187.189 23.2485 188.095 23.2485 189.36ZM35.4678 189.36C35.4678 190.972 35.2075 192.17 34.687 192.953C34.1707 193.736 33.3794 194.127 32.313 194.127C31.2804 194.127 30.4976 193.723 29.9644 192.915C29.4312 192.106 29.1646 190.921 29.1646 189.36C29.1646 187.722 29.4227 186.516 29.939 185.742C30.4595 184.963 31.2508 184.574 32.313 184.574C33.3498 184.574 34.1348 184.98 34.668 185.792C35.2012 186.605 35.4678 187.794 35.4678 189.36ZM30.6753 189.36C30.6753 190.625 30.8044 191.529 31.0625 192.07C31.3249 192.612 31.7417 192.883 32.313 192.883C32.8843 192.883 33.3011 192.608 33.5635 192.058C33.8301 191.507 33.9634 190.608 33.9634 189.36C33.9634 188.116 33.8301 187.216 33.5635 186.662C33.3011 186.104 32.8843 185.824 32.313 185.824C31.7417 185.824 31.3249 186.097 31.0625 186.643C30.8044 187.189 30.6753 188.095 30.6753 189.36ZM42.8945 189.36C42.8945 190.972 42.6343 192.17 42.1138 192.953C41.5975 193.736 40.8062 194.127 39.7397 194.127C38.7072 194.127 37.9243 193.723 37.3911 192.915C36.8579 192.106 36.5913 190.921 36.5913 189.36C36.5913 187.722 36.8494 186.516 37.3657 185.742C37.8862 184.963 38.6776 184.574 39.7397 184.574C40.7765 184.574 41.5615 184.98 42.0947 185.792C42.6279 186.605 42.8945 187.794 42.8945 189.36ZM38.1021 189.36C38.1021 190.625 38.2311 191.529 38.4893 192.07C38.7516 192.612 39.1685 192.883 39.7397 192.883C40.311 192.883 40.7279 192.608 40.9902 192.058C41.2568 191.507 41.3901 190.608 41.3901 189.36C41.3901 188.116 41.2568 187.216 40.9902 186.662C40.7279 186.104 40.311 185.824 39.7397 185.824C39.1685 185.824 38.7516 186.097 38.4893 186.643C38.2311 187.189 38.1021 188.095 38.1021 189.36Z" fill="#404040"/>
<path d="M17.4722 234.205C18.4074 234.205 19.1479 234.452 19.6938 234.947C20.2397 235.442 20.5127 236.117 20.5127 236.972C20.5127 237.962 20.2017 238.737 19.5796 239.295C18.9618 239.85 18.0815 240.127 16.939 240.127C15.9022 240.127 15.0876 239.96 14.4951 239.625V238.273C14.8379 238.468 15.2314 238.618 15.6758 238.724C16.1201 238.83 16.5327 238.883 16.9136 238.883C17.5864 238.883 18.0985 238.733 18.4497 238.432C18.8009 238.132 18.9766 237.692 18.9766 237.112C18.9766 236.003 18.2699 235.449 16.8564 235.449C16.6576 235.449 16.4121 235.47 16.1201 235.512C15.8281 235.55 15.5721 235.595 15.3521 235.646L14.6855 235.252L15.041 230.72H19.8652V232.046H16.355L16.1455 234.344C16.2936 234.319 16.4735 234.289 16.6851 234.255C16.9009 234.222 17.1632 234.205 17.4722 234.205ZM28.041 235.36C28.041 236.972 27.7808 238.17 27.2603 238.953C26.744 239.736 25.9526 240.127 24.8862 240.127C23.8537 240.127 23.0708 239.723 22.5376 238.915C22.0044 238.106 21.7378 236.921 21.7378 235.36C21.7378 233.722 21.9959 232.516 22.5122 231.742C23.0327 230.963 23.8241 230.574 24.8862 230.574C25.923 230.574 26.708 230.98 27.2412 231.792C27.7744 232.605 28.041 233.794 28.041 235.36ZM23.2485 235.36C23.2485 236.625 23.3776 237.529 23.6357 238.07C23.8981 238.612 24.3149 238.883 24.8862 238.883C25.4575 238.883 25.8743 238.608 26.1367 238.058C26.4033 237.507 26.5366 236.608 26.5366 235.36C26.5366 234.116 26.4033 233.216 26.1367 232.662C25.8743 232.104 25.4575 231.824 24.8862 231.824C24.3149 231.824 23.8981 232.097 23.6357 232.643C23.3776 233.189 23.2485 234.095 23.2485 235.36ZM35.4678 235.36C35.4678 236.972 35.2075 238.17 34.687 238.953C34.1707 239.736 33.3794 240.127 32.313 240.127C31.2804 240.127 30.4976 239.723 29.9644 238.915C29.4312 238.106 29.1646 236.921 29.1646 235.36C29.1646 233.722 29.4227 232.516 29.939 231.742C30.4595 230.963 31.2508 230.574 32.313 230.574C33.3498 230.574 34.1348 230.98 34.668 231.792C35.2012 232.605 35.4678 233.794 35.4678 235.36ZM30.6753 235.36C30.6753 236.625 30.8044 237.529 31.0625 238.07C31.3249 238.612 31.7417 238.883 32.313 238.883C32.8843 238.883 33.3011 238.608 33.5635 238.058C33.8301 237.507 33.9634 236.608 33.9634 235.36C33.9634 234.116 33.8301 233.216 33.5635 232.662C33.3011 232.104 32.8843 231.824 32.313 231.824C31.7417 231.824 31.3249 232.097 31.0625 232.643C30.8044 233.189 30.6753 234.095 30.6753 235.36Z" fill="#404040"/>
<path d="M19.1875 281.36C19.1875 282.972 18.9272 284.17 18.4067 284.953C17.8905 285.736 17.0991 286.127 16.0327 286.127C15.0002 286.127 14.2173 285.723 13.6841 284.915C13.1509 284.106 12.8843 282.921 12.8843 281.36C12.8843 279.722 13.1424 278.516 13.6587 277.742C14.1792 276.963 14.9705 276.574 16.0327 276.574C17.0695 276.574 17.8545 276.98 18.3877 277.792C18.9209 278.605 19.1875 279.794 19.1875 281.36ZM14.395 281.36C14.395 282.625 14.5241 283.529 14.7822 284.07C15.0446 284.612 15.4614 284.883 16.0327 284.883C16.604 284.883 17.0208 284.608 17.2832 284.058C17.5498 283.507 17.6831 282.608 17.6831 281.36C17.6831 280.116 17.5498 279.216 17.2832 278.662C17.0208 278.104 16.604 277.824 16.0327 277.824C15.4614 277.824 15.0446 278.097 14.7822 278.643C14.5241 279.189 14.395 280.095 14.395 281.36Z" fill="#404040"/>
<path d="M75.5781 239.562H513.059" stroke="#E1E1E1" stroke-width="0.5" stroke-miterlimit="10"/>
<path d="M75.5781 286H513.059" stroke="#9FA7AA" stroke-width="0.5" stroke-miterlimit="10"/>
<path d="M75.5781 192.763H513.059" stroke="#E1E1E1" stroke-width="0.5" stroke-miterlimit="10"/>
<path d="M75.5781 145.6H513.059" stroke="#E1E1E1" stroke-width="0.5" stroke-miterlimit="10"/>
<path d="M75.5781 98.7988H513.059" stroke="#E1E1E1" stroke-width="0.5" stroke-miterlimit="10"/>
<path d="M75.5781 52H513.059" stroke="#E1E1E1" stroke-width="0.5" stroke-miterlimit="10"/>
<path d="M183.342 118.754H162.437V285.637H183.342V118.754Z" fill="#F1E699"/>
<path d="M223.982 191.674H203.077V285.637H223.982V191.674Z" fill="#F1E699"/>
<path d="M103.233 211.628H82.3281V285.637H103.233V211.628Z" fill="#F1E699"/>
<path d="M142.701 231.581H121.796V286H142.701V231.581Z" fill="#F1E699"/>
<path d="M264.622 152.855H243.717V285.637H264.622V152.855Z" fill="#F1E699"/>
<path d="M304.466 90.0928H283.561V286H304.466V90.0928Z" fill="#F1E699"/>
<path d="M345.903 148.865H324.998V285.637H345.903V148.865Z" fill="#F1E699"/>
<path d="M386.543 148.865H365.638V285.637H386.543V148.865Z" fill="#F1E699"/>
<path d="M426.386 148.865H405.481V285.637H426.386V148.865Z" fill="#F1E699"/>
<path d="M466.23 148.865H445.325V285.637H466.23V148.865Z" fill="#F1E699"/>
<path d="M507.689 58.8926H486.784V285.637H507.689V58.8926Z" fill="#F1E699"/>
<path d="M87.0948 303.08C86.6748 303.08 86.2848 302.993 85.9248 302.82C85.5648 302.64 85.2748 302.39 85.0548 302.07L85.6348 301.39C86.0215 301.943 86.5082 302.22 87.0948 302.22C87.4882 302.22 87.7848 302.1 87.9848 301.86C88.1915 301.62 88.2948 301.267 88.2948 300.8V296.87H85.7648V296H89.2848V300.75C89.2848 301.523 89.0982 302.107 88.7248 302.5C88.3582 302.887 87.8148 303.08 87.0948 303.08ZM93.1118 297.65C93.8451 297.65 94.4051 297.83 94.7918 298.19C95.1851 298.55 95.3818 299.087 95.3818 299.8V303H94.4718V302.3C94.3118 302.547 94.0818 302.737 93.7818 302.87C93.4884 302.997 93.1384 303.06 92.7318 303.06C92.1384 303.06 91.6618 302.917 91.3018 302.63C90.9484 302.343 90.7718 301.967 90.7718 301.5C90.7718 301.033 90.9418 300.66 91.2818 300.38C91.6218 300.093 92.1618 299.95 92.9018 299.95H94.4218V299.76C94.4218 299.347 94.3018 299.03 94.0618 298.81C93.8218 298.59 93.4684 298.48 93.0018 298.48C92.6884 298.48 92.3818 298.533 92.0818 298.64C91.7818 298.74 91.5284 298.877 91.3218 299.05L90.9218 298.33C91.1951 298.11 91.5218 297.943 91.9018 297.83C92.2818 297.71 92.6851 297.65 93.1118 297.65ZM92.8918 302.32C93.2584 302.32 93.5751 302.24 93.8418 302.08C94.1084 301.913 94.3018 301.68 94.4218 301.38V300.64H92.9418C92.1284 300.64 91.7218 300.913 91.7218 301.46C91.7218 301.727 91.8251 301.937 92.0318 302.09C92.2384 302.243 92.5251 302.32 92.8918 302.32ZM99.9883 297.65C100.662 297.65 101.195 297.847 101.588 298.24C101.988 298.627 102.188 299.197 102.188 299.95V303H101.228V300.06C101.228 299.547 101.105 299.16 100.858 298.9C100.612 298.64 100.258 298.51 99.7983 298.51C99.2783 298.51 98.8683 298.663 98.5683 298.97C98.2683 299.27 98.1183 299.703 98.1183 300.27V303H97.1583V297.7H98.0783V298.5C98.2717 298.227 98.5317 298.017 98.8583 297.87C99.1917 297.723 99.5683 297.65 99.9883 297.65Z" fill="#404040"/>
<path d="M124.255 296.87V299.31H127.765V300.17H124.255V303H123.255V296H128.195V296.87H124.255ZM134.086 300.38C134.086 300.453 134.08 300.55 134.066 300.67H129.766C129.826 301.137 130.03 301.513 130.376 301.8C130.73 302.08 131.166 302.22 131.686 302.22C132.32 302.22 132.83 302.007 133.216 301.58L133.746 302.2C133.506 302.48 133.206 302.693 132.846 302.84C132.493 302.987 132.096 303.06 131.656 303.06C131.096 303.06 130.6 302.947 130.166 302.72C129.733 302.487 129.396 302.163 129.156 301.75C128.923 301.337 128.806 300.87 128.806 300.35C128.806 299.837 128.92 299.373 129.146 298.96C129.38 298.547 129.696 298.227 130.096 298C130.503 297.767 130.96 297.65 131.466 297.65C131.973 297.65 132.423 297.767 132.816 298C133.216 298.227 133.526 298.547 133.746 298.96C133.973 299.373 134.086 299.847 134.086 300.38ZM131.466 298.46C131.006 298.46 130.62 298.6 130.306 298.88C130 299.16 129.82 299.527 129.766 299.98H133.166C133.113 299.533 132.93 299.17 132.616 298.89C132.31 298.603 131.926 298.46 131.466 298.46ZM138.229 297.65C138.743 297.65 139.203 297.763 139.609 297.99C140.016 298.217 140.333 298.533 140.559 298.94C140.793 299.347 140.909 299.817 140.909 300.35C140.909 300.883 140.793 301.357 140.559 301.77C140.333 302.177 140.016 302.493 139.609 302.72C139.203 302.947 138.743 303.06 138.229 303.06C137.836 303.06 137.476 302.983 137.149 302.83C136.823 302.677 136.553 302.453 136.339 302.16V303H135.419V295.58H136.379V298.5C136.593 298.22 136.859 298.01 137.179 297.87C137.499 297.723 137.849 297.65 138.229 297.65ZM138.149 302.22C138.489 302.22 138.793 302.143 139.059 301.99C139.333 301.83 139.546 301.61 139.699 301.33C139.859 301.043 139.939 300.717 139.939 300.35C139.939 299.983 139.859 299.66 139.699 299.38C139.546 299.093 139.333 298.873 139.059 298.72C138.793 298.567 138.489 298.49 138.149 298.49C137.816 298.49 137.513 298.567 137.239 298.72C136.966 298.873 136.753 299.093 136.599 299.38C136.446 299.66 136.369 299.983 136.369 300.35C136.369 300.717 136.446 301.043 136.599 301.33C136.753 301.61 136.966 301.83 137.239 301.99C137.513 302.143 137.816 302.22 138.149 302.22Z" fill="#404040"/>
<path d="M170.169 303L170.159 297.9L167.629 302.15H167.169L164.639 297.93V303H163.679V296H164.499L167.419 300.92L170.299 296H171.119L171.129 303H170.169ZM175.02 297.65C175.753 297.65 176.313 297.83 176.7 298.19C177.093 298.55 177.29 299.087 177.29 299.8V303H176.38V302.3C176.22 302.547 175.99 302.737 175.69 302.87C175.396 302.997 175.046 303.06 174.64 303.06C174.046 303.06 173.57 302.917 173.21 302.63C172.856 302.343 172.68 301.967 172.68 301.5C172.68 301.033 172.85 300.66 173.19 300.38C173.53 300.093 174.07 299.95 174.81 299.95H176.33V299.76C176.33 299.347 176.21 299.03 175.97 298.81C175.73 298.59 175.376 298.48 174.91 298.48C174.596 298.48 174.29 298.533 173.99 298.64C173.69 298.74 173.436 298.877 173.23 299.05L172.83 298.33C173.103 298.11 173.43 297.943 173.81 297.83C174.19 297.71 174.593 297.65 175.02 297.65ZM174.8 302.32C175.166 302.32 175.483 302.24 175.75 302.08C176.016 301.913 176.21 301.68 176.33 301.38V300.64H174.85C174.036 300.64 173.63 300.913 173.63 301.46C173.63 301.727 173.733 301.937 173.94 302.09C174.146 302.243 174.433 302.32 174.8 302.32ZM179.986 298.59C180.153 298.283 180.4 298.05 180.726 297.89C181.053 297.73 181.45 297.65 181.916 297.65V298.58C181.863 298.573 181.79 298.57 181.696 298.57C181.176 298.57 180.766 298.727 180.466 299.04C180.173 299.347 180.026 299.787 180.026 300.36V303H179.066V297.7H179.986V298.59Z" fill="#404040"/>
<path d="M209.511 301.25H205.791L205.021 303H203.991L207.161 296H208.151L211.331 303H210.281L209.511 301.25ZM209.161 300.45L207.651 297.02L206.141 300.45H209.161ZM215.045 297.65C215.558 297.65 216.018 297.763 216.425 297.99C216.831 298.217 217.148 298.533 217.375 298.94C217.608 299.347 217.725 299.817 217.725 300.35C217.725 300.883 217.608 301.357 217.375 301.77C217.148 302.177 216.831 302.493 216.425 302.72C216.018 302.947 215.558 303.06 215.045 303.06C214.665 303.06 214.315 302.987 213.995 302.84C213.681 302.693 213.415 302.48 213.195 302.2V304.94H212.235V297.7H213.155V298.54C213.368 298.247 213.638 298.027 213.965 297.88C214.291 297.727 214.651 297.65 215.045 297.65ZM214.965 302.22C215.305 302.22 215.608 302.143 215.875 301.99C216.148 301.83 216.361 301.61 216.515 301.33C216.675 301.043 216.755 300.717 216.755 300.35C216.755 299.983 216.675 299.66 216.515 299.38C216.361 299.093 216.148 298.873 215.875 298.72C215.608 298.567 215.305 298.49 214.965 298.49C214.631 298.49 214.328 298.57 214.055 298.73C213.788 298.883 213.575 299.1 213.415 299.38C213.261 299.66 213.185 299.983 213.185 300.35C213.185 300.717 213.261 301.043 213.415 301.33C213.568 301.61 213.781 301.83 214.055 301.99C214.328 302.143 214.631 302.22 214.965 302.22ZM219.971 298.59C220.138 298.283 220.385 298.05 220.711 297.89C221.038 297.73 221.435 297.65 221.901 297.65V298.58C221.848 298.573 221.775 298.57 221.681 298.57C221.161 298.57 220.751 298.727 220.451 299.04C220.158 299.347 220.011 299.787 220.011 300.36V303H219.051V297.7H219.971V298.59Z" fill="#404040"/>
<path d="M250.832 303L250.822 297.9L248.292 302.15H247.832L245.302 297.93V303H244.342V296H245.162L248.082 300.92L250.962 296H251.782L251.792 303H250.832ZM255.683 297.65C256.416 297.65 256.976 297.83 257.363 298.19C257.756 298.55 257.953 299.087 257.953 299.8V303H257.043V302.3C256.883 302.547 256.653 302.737 256.353 302.87C256.06 302.997 255.71 303.06 255.303 303.06C254.71 303.06 254.233 302.917 253.873 302.63C253.52 302.343 253.343 301.967 253.343 301.5C253.343 301.033 253.513 300.66 253.853 300.38C254.193 300.093 254.733 299.95 255.473 299.95H256.993V299.76C256.993 299.347 256.873 299.03 256.633 298.81C256.393 298.59 256.04 298.48 255.573 298.48C255.26 298.48 254.953 298.533 254.653 298.64C254.353 298.74 254.1 298.877 253.893 299.05L253.493 298.33C253.766 298.11 254.093 297.943 254.473 297.83C254.853 297.71 255.256 297.65 255.683 297.65ZM255.463 302.32C255.83 302.32 256.146 302.24 256.413 302.08C256.68 301.913 256.873 301.68 256.993 301.38V300.64H255.513C254.7 300.64 254.293 300.913 254.293 301.46C254.293 301.727 254.396 301.937 254.603 302.09C254.81 302.243 255.096 302.32 255.463 302.32ZM264.322 297.7L261.752 303.53C261.525 304.07 261.258 304.45 260.952 304.67C260.652 304.89 260.288 305 259.862 305C259.602 305 259.348 304.957 259.102 304.87C258.862 304.79 258.662 304.67 258.502 304.51L258.912 303.79C259.185 304.05 259.502 304.18 259.862 304.18C260.095 304.18 260.288 304.117 260.442 303.99C260.602 303.87 260.745 303.66 260.872 303.36L261.042 302.99L258.702 297.7H259.702L261.552 301.94L263.382 297.7H264.322Z" fill="#404040"/>
<path d="M287.078 303.08C286.658 303.08 286.268 302.993 285.908 302.82C285.548 302.64 285.258 302.39 285.038 302.07L285.618 301.39C286.005 301.943 286.491 302.22 287.078 302.22C287.471 302.22 287.768 302.1 287.968 301.86C288.175 301.62 288.278 301.267 288.278 300.8V296.87H285.748V296H289.268V300.75C289.268 301.523 289.081 302.107 288.708 302.5C288.341 302.887 287.798 303.08 287.078 303.08ZM296.105 297.7V303H295.195V302.2C295.002 302.473 294.745 302.687 294.425 302.84C294.112 302.987 293.768 303.06 293.395 303.06C292.688 303.06 292.132 302.867 291.725 302.48C291.318 302.087 291.115 301.51 291.115 300.75V297.7H292.075V300.64C292.075 301.153 292.198 301.543 292.445 301.81C292.692 302.07 293.045 302.2 293.505 302.2C294.012 302.2 294.412 302.047 294.705 301.74C294.998 301.433 295.145 301 295.145 300.44V297.7H296.105ZM300.763 297.65C301.436 297.65 301.969 297.847 302.363 298.24C302.763 298.627 302.963 299.197 302.963 299.95V303H302.003V300.06C302.003 299.547 301.879 299.16 301.633 298.9C301.386 298.64 301.033 298.51 300.573 298.51C300.053 298.51 299.643 298.663 299.343 298.97C299.043 299.27 298.893 299.703 298.893 300.27V303H297.933V297.7H298.853V298.5C299.046 298.227 299.306 298.017 299.633 297.87C299.966 297.723 300.343 297.65 300.763 297.65Z" fill="#404040"/>
<path d="M329.763 303.08C329.343 303.08 328.953 302.993 328.593 302.82C328.233 302.64 327.943 302.39 327.723 302.07L328.303 301.39C328.69 301.943 329.176 302.22 329.763 302.22C330.156 302.22 330.453 302.1 330.653 301.86C330.86 301.62 330.963 301.267 330.963 300.8V296.87H328.433V296H331.953V300.75C331.953 301.523 331.766 302.107 331.393 302.5C331.026 302.887 330.483 303.08 329.763 303.08ZM338.79 297.7V303H337.88V302.2C337.687 302.473 337.43 302.687 337.11 302.84C336.797 302.987 336.453 303.06 336.08 303.06C335.373 303.06 334.817 302.867 334.41 302.48C334.003 302.087 333.8 301.51 333.8 300.75V297.7H334.76V300.64C334.76 301.153 334.883 301.543 335.13 301.81C335.377 302.07 335.73 302.2 336.19 302.2C336.697 302.2 337.097 302.047 337.39 301.74C337.683 301.433 337.83 301 337.83 300.44V297.7H338.79ZM340.618 295.58H341.578V303H340.618V295.58Z" fill="#404040"/>
<path d="M370.897 301.25H367.177L366.407 303H365.377L368.547 296H369.537L372.717 303H371.667L370.897 301.25ZM370.547 300.45L369.037 297.02L367.527 300.45H370.547ZM378.463 297.7V303H377.553V302.2C377.36 302.473 377.103 302.687 376.783 302.84C376.47 302.987 376.127 303.06 375.753 303.06C375.047 303.06 374.49 302.867 374.083 302.48C373.677 302.087 373.473 301.51 373.473 300.75V297.7H374.433V300.64C374.433 301.153 374.557 301.543 374.803 301.81C375.05 302.07 375.403 302.2 375.863 302.2C376.37 302.2 376.77 302.047 377.063 301.74C377.357 301.433 377.503 301 377.503 300.44V297.7H378.463ZM385.361 297.7V302.28C385.361 303.207 385.131 303.89 384.671 304.33C384.211 304.777 383.524 305 382.611 305C382.111 305 381.634 304.93 381.181 304.79C380.728 304.657 380.361 304.463 380.081 304.21L380.541 303.47C380.788 303.683 381.091 303.85 381.451 303.97C381.818 304.097 382.194 304.16 382.581 304.16C383.201 304.16 383.658 304.013 383.951 303.72C384.251 303.427 384.401 302.98 384.401 302.38V301.96C384.174 302.233 383.894 302.44 383.561 302.58C383.234 302.713 382.878 302.78 382.491 302.78C381.984 302.78 381.524 302.673 381.111 302.46C380.704 302.24 380.384 301.937 380.151 301.55C379.918 301.157 379.801 300.71 379.801 300.21C379.801 299.71 379.918 299.267 380.151 298.88C380.384 298.487 380.704 298.183 381.111 297.97C381.524 297.757 381.984 297.65 382.491 297.65C382.891 297.65 383.261 297.723 383.601 297.87C383.948 298.017 384.231 298.233 384.451 298.52V297.7H385.361ZM382.601 301.94C382.948 301.94 383.258 301.867 383.531 301.72C383.811 301.573 384.028 301.37 384.181 301.11C384.341 300.843 384.421 300.543 384.421 300.21C384.421 299.697 384.251 299.283 383.911 298.97C383.571 298.65 383.134 298.49 382.601 298.49C382.061 298.49 381.621 298.65 381.281 298.97C380.941 299.283 380.771 299.697 380.771 300.21C380.771 300.543 380.848 300.843 381.001 301.11C381.161 301.37 381.378 301.573 381.651 301.72C381.931 301.867 382.248 301.94 382.601 301.94Z" fill="#404040"/>
<path d="M411.564 303.08C410.857 303.08 410.22 302.927 409.654 302.62C409.087 302.307 408.64 301.877 408.314 301.33C407.994 300.783 407.834 300.173 407.834 299.5C407.834 298.827 407.994 298.217 408.314 297.67C408.64 297.123 409.087 296.697 409.654 296.39C410.22 296.077 410.857 295.92 411.564 295.92C412.264 295.92 412.897 296.077 413.464 296.39C414.03 296.697 414.474 297.123 414.794 297.67C415.114 298.21 415.274 298.82 415.274 299.5C415.274 300.18 415.114 300.793 414.794 301.34C414.474 301.88 414.03 302.307 413.464 302.62C412.897 302.927 412.264 303.08 411.564 303.08ZM411.564 302.19C412.077 302.19 412.537 302.073 412.944 301.84C413.357 301.607 413.68 301.287 413.914 300.88C414.154 300.467 414.274 300.007 414.274 299.5C414.274 298.993 414.154 298.537 413.914 298.13C413.68 297.717 413.357 297.393 412.944 297.16C412.537 296.927 412.077 296.81 411.564 296.81C411.05 296.81 410.584 296.927 410.164 297.16C409.75 297.393 409.424 297.717 409.184 298.13C408.95 298.537 408.834 298.993 408.834 299.5C408.834 300.007 408.95 300.467 409.184 300.88C409.424 301.287 409.75 301.607 410.164 301.84C410.584 302.073 411.05 302.19 411.564 302.19ZM418.972 303.06C418.432 303.06 417.949 302.943 417.522 302.71C417.102 302.477 416.772 302.157 416.532 301.75C416.292 301.337 416.172 300.87 416.172 300.35C416.172 299.83 416.292 299.367 416.532 298.96C416.772 298.547 417.102 298.227 417.522 298C417.949 297.767 418.432 297.65 418.972 297.65C419.452 297.65 419.879 297.747 420.252 297.94C420.632 298.133 420.925 298.413 421.132 298.78L420.402 299.25C420.235 298.997 420.029 298.807 419.782 298.68C419.535 298.553 419.262 298.49 418.962 298.49C418.615 298.49 418.302 298.567 418.022 298.72C417.749 298.873 417.532 299.093 417.372 299.38C417.219 299.66 417.142 299.983 417.142 300.35C417.142 300.723 417.219 301.053 417.372 301.34C417.532 301.62 417.749 301.837 418.022 301.99C418.302 302.143 418.615 302.22 418.962 302.22C419.262 302.22 419.535 302.157 419.782 302.03C420.029 301.903 420.235 301.713 420.402 301.46L421.132 301.92C420.925 302.287 420.632 302.57 420.252 302.77C419.879 302.963 419.452 303.06 418.972 303.06ZM425.423 302.69C425.283 302.81 425.11 302.903 424.903 302.97C424.697 303.03 424.483 303.06 424.263 303.06C423.73 303.06 423.317 302.917 423.023 302.63C422.73 302.343 422.583 301.933 422.583 301.4V298.49H421.683V297.7H422.583V296.54H423.543V297.7H425.063V298.49H423.543V301.36C423.543 301.647 423.613 301.867 423.753 302.02C423.9 302.173 424.107 302.25 424.373 302.25C424.667 302.25 424.917 302.167 425.123 302L425.423 302.69Z" fill="#404040"/>
<path d="M454.311 296V303H453.491L449.291 297.78V303H448.291V296H449.111L453.311 301.22V296H454.311ZM458.537 303.06C458.01 303.06 457.537 302.943 457.117 302.71C456.697 302.477 456.367 302.157 456.127 301.75C455.893 301.337 455.777 300.87 455.777 300.35C455.777 299.83 455.893 299.367 456.127 298.96C456.367 298.547 456.697 298.227 457.117 298C457.537 297.767 458.01 297.65 458.537 297.65C459.063 297.65 459.533 297.767 459.947 298C460.367 298.227 460.693 298.547 460.927 298.96C461.167 299.367 461.287 299.83 461.287 300.35C461.287 300.87 461.167 301.337 460.927 301.75C460.693 302.157 460.367 302.477 459.947 302.71C459.533 302.943 459.063 303.06 458.537 303.06ZM458.537 302.22C458.877 302.22 459.18 302.143 459.447 301.99C459.72 301.83 459.933 301.61 460.087 301.33C460.24 301.043 460.317 300.717 460.317 300.35C460.317 299.983 460.24 299.66 460.087 299.38C459.933 299.093 459.72 298.873 459.447 298.72C459.18 298.567 458.877 298.49 458.537 298.49C458.197 298.49 457.89 298.567 457.617 298.72C457.35 298.873 457.137 299.093 456.977 299.38C456.823 299.66 456.747 299.983 456.747 300.35C456.747 300.717 456.823 301.043 456.977 301.33C457.137 301.61 457.35 301.83 457.617 301.99C457.89 302.143 458.197 302.22 458.537 302.22ZM467.158 297.7L464.838 303H463.858L461.538 297.7H462.538L464.358 301.95L466.218 297.7H467.158Z" fill="#404040"/>
<path d="M488.872 296H491.822C492.562 296 493.219 296.147 493.792 296.44C494.366 296.733 494.809 297.147 495.122 297.68C495.442 298.207 495.602 298.813 495.602 299.5C495.602 300.187 495.442 300.797 495.122 301.33C494.809 301.857 494.366 302.267 493.792 302.56C493.219 302.853 492.562 303 491.822 303H488.872V296ZM491.762 302.13C492.329 302.13 492.826 302.02 493.252 301.8C493.686 301.58 494.019 301.273 494.252 300.88C494.486 300.48 494.602 300.02 494.602 299.5C494.602 298.98 494.486 298.523 494.252 298.13C494.019 297.73 493.686 297.42 493.252 297.2C492.826 296.98 492.329 296.87 491.762 296.87H489.872V302.13H491.762ZM501.784 300.38C501.784 300.453 501.777 300.55 501.764 300.67H497.464C497.524 301.137 497.727 301.513 498.074 301.8C498.427 302.08 498.864 302.22 499.384 302.22C500.017 302.22 500.527 302.007 500.914 301.58L501.444 302.2C501.204 302.48 500.904 302.693 500.544 302.84C500.191 302.987 499.794 303.06 499.354 303.06C498.794 303.06 498.297 302.947 497.864 302.72C497.431 302.487 497.094 302.163 496.854 301.75C496.621 301.337 496.504 300.87 496.504 300.35C496.504 299.837 496.617 299.373 496.844 298.96C497.077 298.547 497.394 298.227 497.794 298C498.201 297.767 498.657 297.65 499.164 297.65C499.671 297.65 500.121 297.767 500.514 298C500.914 298.227 501.224 298.547 501.444 298.96C501.671 299.373 501.784 299.847 501.784 300.38ZM499.164 298.46C498.704 298.46 498.317 298.6 498.004 298.88C497.697 299.16 497.517 299.527 497.464 299.98H500.864C500.811 299.533 500.627 299.17 500.314 298.89C500.007 298.603 499.624 298.46 499.164 298.46ZM505.427 303.06C504.887 303.06 504.404 302.943 503.977 302.71C503.557 302.477 503.227 302.157 502.987 301.75C502.747 301.337 502.627 300.87 502.627 300.35C502.627 299.83 502.747 299.367 502.987 298.96C503.227 298.547 503.557 298.227 503.977 298C504.404 297.767 504.887 297.65 505.427 297.65C505.907 297.65 506.334 297.747 506.707 297.94C507.087 298.133 507.38 298.413 507.587 298.78L506.857 299.25C506.69 298.997 506.484 298.807 506.237 298.68C505.99 298.553 505.717 298.49 505.417 298.49C505.07 298.49 504.757 298.567 504.477 298.72C504.204 298.873 503.987 299.093 503.827 299.38C503.674 299.66 503.597 299.983 503.597 300.35C503.597 300.723 503.674 301.053 503.827 301.34C503.987 301.62 504.204 301.837 504.477 301.99C504.757 302.143 505.07 302.22 505.417 302.22C505.717 302.22 505.99 302.157 506.237 302.03C506.484 301.903 506.69 301.713 506.857 301.46L507.587 301.92C507.38 302.287 507.087 302.57 506.707 302.77C506.334 302.963 505.907 303.06 505.427 303.06Z" fill="#404040"/>
</svg>
