<svg width="21" height="22" viewBox="0 0 21 22" fill="none" xmlns="http://www.w3.org/2000/svg">
<path d="M10.4 4.62127C12.3529 4.62127 13.6702 5.46488 14.4214 6.16978L17.3565 3.30398C15.5538 1.62838 13.208 0.599976 10.4 0.599976C6.33254 0.599976 2.81964 2.93417 1.10944 6.33147L4.47204 8.94308C5.31564 6.43548 7.64984 4.62127 10.4 4.62127Z" fill="#EA4335"/>
<path d="M20.384 11.2311C20.384 10.376 20.3147 9.75202 20.1644 9.10492H10.4V12.9644H16.1316C16.016 13.9235 15.392 15.368 14.0053 16.3386L17.2871 18.8809C19.2516 17.0666 20.384 14.3973 20.384 11.2311Z" fill="#4285F4"/>
<path d="M4.4836 13.0569C4.264 12.4098 4.1369 11.7164 4.1369 11C4.1369 10.2835 4.264 9.59018 4.472 8.94308L1.1093 6.33148C0.4045 7.74128 0 9.32438 0 11C0 12.6755 0.4045 14.2587 1.1093 15.6684L4.4836 13.0569Z" fill="#FBBC05"/>
<path d="M10.4 21.4C13.208 21.4 15.5653 20.4756 17.2871 18.8809L14.0053 16.3387C13.1271 16.9511 11.9484 17.3787 10.4 17.3787C7.64981 17.3787 5.31561 15.5644 4.48361 13.0569L1.12091 15.6684C2.83111 19.0658 6.33241 21.4 10.4 21.4Z" fill="#34A853"/>
</svg>
